{
  "accessors": [
    {
      "bufferView": 3,
      "componentType": 5126,
      "count": 183,
      "max": [
        0.30000001192092896,
        -1.3946000337600708,
        -2.9189999103546143
      ],
      "min": [
        -0.20149999856948853,
        -1.5885000228881836,
        -3.2221999168395996
      ],
      "type": "VEC3"
    },
    {
      "bufferView": 3,
      "byteOffset": 2196,
      "componentType": 5126,
      "count": 183,
      "max": [
        0.9998926520347595,
        0.977225124835968,
        0.9681425094604492
      ],
      "min": [
        -0.98734050989151,
        -0.9997571706771851,
        -0.9899563789367676
      ],
      "type": "VEC3"
    },
    {
      "bufferView": 2,
      "componentType": 5126,
      "count": 183,
      "max": [
        0.9839000105857849,
        0.9921000003814697
      ],
      "min": [
        0.012199999764561653,
        0.009199976921081543
      ],
      "type": "VEC2"
    },
    {
      "bufferView": 1,
      "componentType": 5125,
      "count": 606,
      "type": "SCALAR"
    },
    {
      "bufferView": 3,
      "byteOffset": 4392,
      "componentType": 5126,
      "count": 294,
      "max": [
        0.2563999891281128,
        -0.4729999899864197,
        -2.9091999530792236
      ],
      "min": [
        -0.1808999925851822,
        -1.5501999855041504,
        -3.251499891281128
      ],
      "type": "VEC3"
    },
    {
      "bufferView": 3,
      "byteOffset": 7920,
      "componentType": 5126,
      "count": 294,
      "max": [
        0.9999805688858032,
        0.8370493054389954,
        0.9999025464057922
      ],
      "min": [
        -0.9992887377738953,
        -0.9892123341560364,
        -0.998405933380127
      ],
      "type": "VEC3"
    },
    {
      "bufferView": 2,
      "byteOffset": 1464,
      "componentType": 5126,
      "count": 294,
      "max": [
        0.989799976348877,
        0.9983000159263611
      ],
      "min": [
        0.004000000189989805,
        0.0023000240325927734
      ],
      "type": "VEC2"
    },
    {
      "bufferView": 1,
      "byteOffset": 2424,
      "componentType": 5125,
      "count": 1284,
      "type": "SCALAR"
    },
    {
      "bufferView": 3,
      "byteOffset": 11448,
      "componentType": 5126,
      "count": 258,
      "max": [
        0.313400000333786,
        -0.6241000294685364,
        -3.0206000804901123
      ],
      "min": [
        -0.2741999924182892,
        -0.7756999731063843,
        -3.1428000926971436
      ],
      "type": "VEC3"
    },
    {
      "bufferView": 3,
      "byteOffset": 14544,
      "componentType": 5126,
      "count": 258,
      "max": [
        0.9973268508911133,
        0.9808909296989441,
        0.9943022131919861
      ],
      "min": [
        -0.978265643119812,
        -0.9932559132575989,
        -0.9933011531829834
      ],
      "type": "VEC3"
    },
    {
      "bufferView": 2,
      "byteOffset": 3816,
      "componentType": 5126,
      "count": 258,
      "max": [
        0.8166999816894531,
        0.9430000185966492
      ],
      "min": [
        0.0032999999821186066,
        0.14910006523132324
      ],
      "type": "VEC2"
    },
    {
      "bufferView": 1,
      "byteOffset": 7560,
      "componentType": 5125,
      "count": 900,
      "type": "SCALAR"
    },
    {
      "bufferView": 3,
      "byteOffset": 17640,
      "componentType": 5126,
      "count": 581,
      "max": [
        0.0812000036239624,
        0.20669999718666077,
        -2.930500030517578
      ],
      "min": [
        -0.09459999948740005,
        -0.016499999910593033,
        -3.1391000747680664
      ],
      "type": "VEC3"
    },
    {
      "bufferView": 3,
      "byteOffset": 24612,
      "componentType": 5126,
      "count": 581,
      "max": [
        0.9986887574195862,
        0.9886281490325928,
        0.9964783191680908
      ],
      "min": [
        -0.9980509877204895,
        -0.9994156956672668,
        -0.9976041316986084
      ],
      "type": "VEC3"
    },
    {
      "bufferView": 2,
      "byteOffset": 5880,
      "componentType": 5126,
      "count": 581,
      "max": [
        0.9972000122070313,
        0.9975000023841858
      ],
      "min": [
        0.0019000000320374966,
        0.004000067710876465
      ],
      "type": "VEC2"
    },
    {
      "bufferView": 1,
      "byteOffset": 11160,
      "componentType": 5125,
      "count": 2268,
      "type": "SCALAR"
    },
    {
      "bufferView": 3,
      "byteOffset": 31584,
      "componentType": 5126,
      "count": 405,
      "max": [
        0.301800012588501,
        0.0625,
        -2.9372000694274902
      ],
      "min": [
        -0.275299996137619,
        -0.6599000096321106,
        -3.2040998935699463
      ],
      "type": "VEC3"
    },
    {
      "bufferView": 3,
      "byteOffset": 36444,
      "componentType": 5126,
      "count": 405,
      "max": [
        0.9982956647872925,
        0.9698584079742432,
        0.9999392628669739
      ],
      "min": [
        -0.998589038848877,
        -0.4942675530910492,
        -0.9996212720870972
      ],
      "type": "VEC3"
    },
    {
      "bufferView": 2,
      "byteOffset": 10528,
      "componentType": 5126,
      "count": 405,
      "max": [
        0.9995999932289124,
        0.949400007724762
      ],
      "min": [
        0.002300000051036477,
        0.012400031089782715
      ],
      "type": "VEC2"
    },
    {
      "bufferView": 1,
      "byteOffset": 20232,
      "componentType": 5125,
      "count": 1938,
      "type": "SCALAR"
    },
    {
      "bufferView": 5,
      "componentType": 5126,
      "count": 24,
      "max": [
        1.0,
        0.9997222423553467,
        0.8209814429283142,
        0.0,
        0.10812071710824966,
        1.0,
        0.9999523758888245,
        0.0,
        1.0,
        0.1887499988079071,
        1.0,
        0.0,
        3.077162504196167,
        1.6914879083633423,
        1.6653658151626587,
        1.0
      ],
      "min": [
        -0.005332851782441139,
        -0.9999523758888245,
        -0.8212423920631409,
        0.0,
        -0.2262192964553833,
        -0.2687952518463135,
        0.0,
        0.0,
        -1.0,
        -3.9968028886505635e-15,
        -1.6458961895894327e-17,
        0.0,
        -3.077162504196167,
        -0.4284125566482544,
        0.0,
        1.0
      ],
      "type": "MAT4"
    },
    {
      "bufferView": 0,
      "componentType": 5123,
      "count": 183,
      "type": "VEC4"
    },
    {
      "bufferView": 4,
      "componentType": 5126,
      "count": 183,
      "max": [
        1.0,
        0.0,
        0.0,
        0.0
      ],
      "min": [
        1.0,
        0.0,
        0.0,
        0.0
      ],
      "type": "VEC4"
    },
    {
      "bufferView": 0,
      "byteOffset": 1464,
      "componentType": 5123,
      "count": 294,
      "type": "VEC4"
    },
    {
      "bufferView": 4,
      "byteOffset": 2928,
      "componentType": 5126,
      "count": 294,
      "max": [
        1.0,
        0.4631570875644684,
        0.0,
        0.0
      ],
      "min": [
        0.5368428826332092,
        0.0,
        0.0,
        0.0
      ],
      "type": "VEC4"
    },
    {
      "bufferView": 0,
      "byteOffset": 3816,
      "componentType": 5123,
      "count": 258,
      "type": "VEC4"
    },
    {
      "bufferView": 4,
      "byteOffset": 7632,
      "componentType": 5126,
      "count": 258,
      "max": [
        1.0,
        0.0,
        0.0,
        0.0
      ],
      "min": [
        1.0,
        0.0,
        0.0,
        0.0
      ],
      "type": "VEC4"
    }
  ],
  "asset": {
    "extras": {
      "author": "lechitachan (https://sketchfab.com/lechitachan)",
      "license": "CC-BY-4.0 (http://creativecommons.org/licenses/by/4.0/)",
      "source": "https://sketchfab.com/3d-models/cj-c7c0abe69500425fb98b14b8a7398259",
      "title": "CJ"
    },
    "generator": "Sketchfab-12.66.0",
    "version": "2.0"
  },
  "bufferViews": [
    {
      "buffer": 0,
      "byteLength": 5880,
      "byteStride": 8,
      "name": "shortBufferViews",
      "target": 34962
    },
    {
      "buffer": 0,
      "byteLength": 27984,
      "byteOffset": 5880,
      "name": "floatBufferViews",
      "target": 34963
    },
    {
      "buffer": 0,
      "byteLength": 13768,
      "byteOffset": 33864,
      "byteStride": 8,
      "name": "floatBufferViews",
      "target": 34962
    },
    {
      "buffer": 0,
      "byteLength": 41304,
      "byteOffset": 47632,
      "byteStride": 12,
      "name": "floatBufferViews",
      "target": 34962
    },
    {
      "buffer": 0,
      "byteLength": 11760,
      "byteOffset": 88936,
      "byteStride": 16,
      "name": "floatBufferViews",
      "target": 34962
    },
    {
      "buffer": 0,
      "byteLength": 1536,
      "byteOffset": 100696,
      "name": "floatBufferViews"
    }
  ],
  "buffers": [
    {
      "byteLength": 102232,
      "uri": "scene.bin"
    }
  ],
  "images": [
    {
      "uri": "textures/material_baseColor.png"
    },
    {
      "uri": "textures/Mat_0_baseColor.png"
    },
    {
      "uri": "textures/Mat_1_baseColor.png"
    },
    {
      "uri": "textures/Mat_2_baseColor.png"
    }
  ],
  "materials": [
    {
      "doubleSided": true,
      "name": "material",
      "pbrMetallicRoughness": {
        "baseColorTexture": {
          "index": 0
        },
        "metallicFactor": 0.0,
        "roughnessFactor": 0.6
      }
    },
    {
      "doubleSided": true,
      "name": "Mat_0",
      "pbrMetallicRoughness": {
        "baseColorTexture": {
          "index": 1
        },
        "metallicFactor": 0.0,
        "roughnessFactor": 0.6
      }
    },
    {
      "doubleSided": true,
      "name": "Mat_1",
      "pbrMetallicRoughness": {
        "baseColorTexture": {
          "index": 2
        },
        "metallicFactor": 0.0,
        "roughnessFactor": 0.6
      }
    },
    {
      "doubleSided": true,
      "name": "Mat_2",
      "pbrMetallicRoughness": {
        "baseColorTexture": {
          "index": 3
        },
        "metallicFactor": 0.0,
        "roughnessFactor": 0.6
      }
    }
  ],
  "meshes": [
    {
      "name": "PIES_Mat_0",
      "primitives": [
        {
          "attributes": {
            "JOINTS_0": 21,
            "NORMAL": 1,
            "POSITION": 0,
            "TEXCOORD_0": 2,
            "WEIGHTS_0": 22
          },
          "indices": 3,
          "material": 0,
          "mode": 4
        }
      ]
    },
    {
      "name": "PIERNAS_Mat_0",
      "primitives": [
        {
          "attributes": {
            "JOINTS_0": 23,
            "NORMAL": 5,
            "POSITION": 4,
            "TEXCOORD_0": 6,
            "WEIGHTS_0": 24
          },
          "indices": 7,
          "material": 1,
          "mode": 4
        }
      ]
    },
    {
      "name": "MANOS_Mat_0",
      "primitives": [
        {
          "attributes": {
            "JOINTS_0": 25,
            "NORMAL": 9,
            "POSITION": 8,
            "TEXCOORD_0": 10,
            "WEIGHTS_0": 26
          },
          "indices": 11,
          "material": 2,
          "mode": 4
        }
      ]
    },
    {
      "name": "CABEZA_Mat_0",
      "primitives": [
        {
          "attributes": {
            "NORMAL": 13,
            "POSITION": 12,
            "TEXCOORD_0": 14
          },
          "indices": 15,
          "material": 3,
          "mode": 4
        }
      ]
    },
    {
      "name": "TORSO_Mat_0",
      "primitives": [
        {
          "attributes": {
            "NORMAL": 17,
            "POSITION": 16,
            "TEXCOORD_0": 18
          },
          "indices": 19,
          "material": 2,
          "mode": 4
        }
      ]
    }
  ],
  "nodes": [
    {
      "children": [
        1
      ],
      "matrix": [
        1.0,
        0.0,
        0.0,
        0.0,
        0.0,
        2.220446049250313e-16,
        -1.0,
        0.0,
        0.0,
        1.0,
        2.220446049250313e-16,
        0.0,
        0.0,
        0.0,
        0.0,
        1.0
      ],
      "name": "Sketchfab_model"
    },
    {
      "children": [
        2
      ],
      "matrix": [
        1.0,
        0.0,
        0.0,
        0.0,
        0.0,
        0.0,
        1.0,
        0.0,
        0.0,
        -1.0,
        0.0,
        0.0,
        0.0,
        0.0,
        0.0,
        1.0
      ],
      "name": "CJ FLAQUITO NORMAL XD XD XD.fbx"
    },
    {
      "children": [
        3
      ],
      "name": "RootNode"
    },
    {
      "children": [
        4,
        6,
        8,
        10,
        5,
        7,
        9,
        34,
        36
      ],
      "name": "Object_3"
    },
    {
      "children": [
        11,
        14,
        18,
        22,
        26,
        30,
        32
      ],
      "name": "_rootJoint"
    },
    {
      "matrix": [
        1.0,
        1.1102230246251565e-16,
        1.3877787807814457e-17,
        0.0,
        -1.1102230246251565e-16,
        1.0,
        -2.7755575615628914e-17,
        0.0,
        -1.3877787807814463e-17,
        2.775557561562892e-17,
        1.0000000000000002,
        0.0,
        -1.1102230246251565e-16,
        4.440892098500626e-16,
        4.440892098500626e-16,
        1.0
      ],
      "name": "Object_5"
    },
    {
      "mesh": 0,
      "name": "Object_6",
      "skin": 0
    },
    {
      "matrix": [
        1.0,
        5.551115123125783e-17,
        -1.4637067577342992e-32,
        0.0,
        -5.551115123125783e-17,
        1.0,
        0.0,
        0.0,
        1.4637067577342992e-32,
        8.125204718680275e-49,
        1.0,
        0.0,
        2.0816681711721685e-17,
        1.1102230246251565e-16,
        0.0,
        1.0
      ],
      "name": "Object_7"
    },
    {
      "mesh": 1,
      "name": "Object_8",
      "skin": 0
    },
    {
      "matrix": [
        1.0,
        0.0,
        5.6265742398719285e-33,
        0.0,
        -5.4181939064435985e-67,
        1.0,
        9.62964972193618e-35,
        0.0,
        -5.6265742398719285e-33,
        -9.62964972193618e-35,
        1.0,
        0.0,
        5.551115123125783e-17,
        1.1102230246251565e-16,
        4.440892098500626e-16,
        1.0
      ],
      "name": "Object_9"
    },
    {
      "mesh": 2,
      "name": "Object_10",
      "skin": 0
    },
    {
      "children": [
        12
      ],
      "name": "CABEZA__00",
      "rotation": [
        -0.4921293556690216,
        -0.5077486634254456,
        -0.4921293556690216,
        0.5077486634254456
      ],
      "translation": [
        -0.006184716243296862,
        0.17238107323646545,
        -3.063131332397461
      ]
    },
    {
      "children": [
        13
      ],
      "name": "Junta_1_01",
      "rotation": [
        -0.01561928354203701,
        -0.0,
        0.0,
        0.9998781085014343
      ],
      "translation": [
        0.0,
        4.683753385137379e-17,
        -0.36622896790504456
      ]
    },
    {
      "name": "Junta_2_02",
      "rotation": [
        1.1102230246251565e-16,
        0.0,
        0.0,
        1.0
      ],
      "translation": [
        0.0,
        -1.734723475976807e-18,
        -0.2554726004600525
      ]
    },
    {
      "children": [
        15
      ],
      "name": "PIERNA_DER_03",
      "rotation": [
        -0.4236253798007965,
        -0.566163957118988,
        -0.4236253798007965,
        0.566163957118988
      ],
      "translation": [
        0.001441331347450614,
        -0.4834589958190918,
        -3.063131332397461
      ]
    },
    {
      "children": [
        16
      ],
      "name": "Junta_1_2_04",
      "rotation": [
        -0.15318967401981354,
        0.1125200167298317,
        -0.017559779807925224,
        0.9816128611564636
      ],
      "translation": [
        0.0,
        2.7755575615628914e-17,
        -0.5405356287956238
      ]
    },
    {
      "children": [
        17
      ],
      "name": "PIE_DER_05",
      "rotation": [
        0.47351911664009094,
        -4.2324613776807804e-16,
        9.196130829221532e-17,
        0.8807836771011353
      ],
      "translation": [
        0.02231946587562561,
        -3.885780586188048e-16,
        -0.4798593521118164
      ]
    },
    {
      "name": "Junta_3_06",
      "rotation": [
        -5.100087019371813e-16,
        -6.938893903907228e-18,
        5.551115123125783e-17,
        1.0
      ],
      "translation": [
        0.1928594708442688,
        -0.06264325231313705,
        -0.07352571189403534
      ]
    },
    {
      "children": [
        19
      ],
      "name": "PIERNA_IZQ_07",
      "rotation": [
        -0.4236253798007965,
        0.566163957118988,
        0.4236253798007965,
        0.566163957118988
      ],
      "translation": [
        -0.001441331347450614,
        -0.4834589958190918,
        -3.063131332397461
      ]
    },
    {
      "children": [
        20
      ],
      "name": "Junta_1_3_08",
      "rotation": [
        -0.15396654605865479,
        -0.05350719764828682,
        0.00835028849542141,
        0.9865908622741699
      ],
      "translation": [
        0.018992222845554352,
        -0.04807455092668533,
        -0.5251561403274536
      ]
    },
    {
      "children": [
        21
      ],
      "name": "PIE_IZQ_09",
      "rotation": [
        0.47351911664009094,
        -8.687112732316165e-16,
        4.649790540326034e-16,
        0.8807836771011353
      ],
      "translation": [
        -0.0002754002343863249,
        0.008802776224911213,
        -0.48568007349967957
      ]
    },
    {
      "name": "Junta_3_2_010",
      "rotation": [
        -7.710845850716908e-16,
        6.938893903907228e-18,
        5.3504741267507896e-33,
        1.0
      ],
      "translation": [
        -0.19466733932495117,
        -0.062328286468982697,
        -0.05726755037903786
      ]
    },
    {
      "children": [
        23
      ],
      "name": "BRAZO_DER_011",
      "rotation": [
        -0.004910108633339405,
        -0.7070897221565247,
        -0.004910108633339405,
        0.7070897221565247
      ],
      "translation": [
        0.0014459328958764672,
        -0.08148634433746338,
        -3.115906238555908
      ]
    },
    {
      "children": [
        24
      ],
      "name": "Junta_1_4_012",
      "rotation": [
        -0.6654254794120789,
        -0.0,
        0.0,
        0.7464643120765686
      ],
      "translation": [
        -0.039878226816654205,
        -1.3877787807814457e-17,
        -0.21859797835350037
      ]
    },
    {
      "children": [
        25
      ],
      "name": "Junta_2_2_013",
      "rotation": [
        0.008075854741036892,
        -0.1463674157857895,
        -0.001194958807900548,
        0.9891967177391052
      ],
      "translation": [
        0.0,
        -1.1102230246251565e-16,
        -0.27156326174736023
      ]
    },
    {
      "name": "Junta_3_3_014",
      "rotation": [
        -4.843161280041494e-16,
        2.7755575615628914e-17,
        -1.2185582738811855e-16,
        1.0
      ],
      "translation": [
        0.0,
        -1.6653345369377348e-16,
        -0.2598218023777008
      ]
    },
    {
      "children": [
        27
      ],
      "name": "BRAZO_IZQ_015",
      "rotation": [
        -0.004910108633339405,
        0.7070897221565247,
        0.004910108633339405,
        0.7070897221565247
      ],
      "translation": [
        -0.0014459328958764672,
        -0.08148634433746338,
        -3.115906238555908
      ]
    },
    {
      "children": [
        28
      ],
      "name": "Junta_1_5_016",
      "rotation": [
        -0.6654254794120789,
        -0.0,
        0.0,
        0.7464643120765686
      ],
      "translation": [
        0.0,
        -0.001982688205316663,
        -0.2013832926750183
      ]
    },
    {
      "children": [
        29
      ],
      "name": "Junta_2_3_017",
      "rotation": [
        0.008127111941576004,
        0.0946711078286171,
        0.0007729074568487704,
        0.9954751133918762
      ],
      "translation": [
        0.0069823614321649075,
        2.1881349312025122e-05,
        -0.27290329337120056
      ]
    },
    {
      "name": "Junta_3_4_018",
      "rotation": [
        -7.661186426601756e-16,
        2.636779683484747e-16,
        -1.5029900846846075e-16,
        1.0
      ],
      "translation": [
        -4.440892098500626e-16,
        1.1102230246251565e-16,
        -0.2598218023777008
      ]
    },
    {
      "children": [
        31
      ],
      "name": "MANO_IZQ_019",
      "rotation": [
        -0.49755457043647766,
        0.5024335384368896,
        0.49755457043647766,
        0.5024335384368896
      ],
      "translation": [
        -0.25734132528305054,
        -0.6259933710098267,
        -3.077162504196167
      ]
    },
    {
      "name": "Junta_1_6_020",
      "rotation": [
        1.734723475976807e-18,
        -0.0,
        -1.232595164407831e-32,
        1.0
      ],
      "translation": [
        0.0,
        -1.6653345369377348e-16,
        -0.10979652404785156
      ]
    },
    {
      "children": [
        33
      ],
      "name": "MANO_DER_021",
      "rotation": [
        0.5632040500640869,
        0.42755255103111267,
        0.5632040500640869,
        -0.42755255103111267
      ],
      "translation": [
        0.27012330293655396,
        -0.6258686780929565,
        -3.077162504196167
      ]
    },
    {
      "name": "Junta_1_7_022",
      "rotation": [
        -2.7755575615628914e-17,
        1.5407439555097887e-33,
        0.0,
        1.0
      ],
      "translation": [
        0.0,
        -5.551115123125783e-17,
        -0.10979652404785156
      ]
    },
    {
      "children": [
        35
      ],
      "name": "CABEZA"
    },
    {
      "mesh": 3,
      "name": "CABEZA_Mat_0"
    },
    {
      "children": [
        37
      ],
      "name": "TORSO"
    },
    {
      "mesh": 4,
      "name": "TORSO_Mat_0"
    }
  ],
  "samplers": [
    {
      "magFilter": 9729,
      "minFilter": 9987,
      "wrapS": 10497,
      "wrapT": 10497
    }
  ],
  "scene": 0,
  "scenes": [
    {
      "name": "Sketchfab_Scene",
      "nodes": [
        0
      ]
    }
  ],
  "skins": [
    {
      "inverseBindMatrices": 20,
      "joints": [
        4,
        11,
        12,
        13,
        14,
        15,
        16,
        17,
        18,
        19,
        20,
        21,
        22,
        23,
        24,
        25,
        26,
        27,
        28,
        29,
        30,
        31,
        32,
        33
      ],
      "skeleton": 4
    }
  ],
  "textures": [
    {
      "sampler": 0,
      "source": 0
    },
    {
      "sampler": 0,
      "source": 1
    },
    {
      "sampler": 0,
      "source": 2
    },
    {
      "sampler": 0,
      "source": 3
    }
  ]
}
